<svg width="14" height="14" viewBox="0 0 14 14" fill="none" xmlns="http://www.w3.org/2000/svg">
<path d="M6.99334 0.333336C3.31334 0.333336 0.333336 3.32 0.333336 7C0.333336 10.68 3.31334 13.6667 6.99334 13.6667C10.68 13.6667 13.6667 10.68 13.6667 7C13.6667 3.32 10.68 0.333336 6.99334 0.333336ZM7 12.3333C4.05334 12.3333 1.66667 9.94667 1.66667 7C1.66667 4.05334 4.05334 1.66667 7 1.66667C9.94667 1.66667 12.3333 4.05334 12.3333 7C12.3333 9.94667 9.94667 12.3333 7 12.3333ZM7.33334 3.66667H6.33334V7.66667L9.83334 9.76667L10.3333 8.94667L7.33334 7.16667V3.66667Z" fill="#888888"/>
</svg>
